<?xml version="1.0" encoding="UTF-8"?>
<svg width="23px" height="23px" viewBox="0 0 23 23" version="1.1" xmlns="http://www.w3.org/2000/svg" xmlns:xlink="http://www.w3.org/1999/xlink">
    <title>instagram</title>
    <defs>
        <filter id="filter-1">
            <feColorMatrix in="SourceGraphic" type="matrix" values="0 0 0 0 0.760784 0 0 0 0 0.760784 0 0 0 0 0.760784 0 0 0 1.000000 0"></feColorMatrix>
        </filter>
    </defs>
    <g id="Home" stroke="none" stroke-width="1" fill="none" fill-rule="evenodd">
        <g id="Desktop" transform="translate(-322.000000, -3638.000000)">
            <g id="Footer" transform="translate(0.000000, 3464.000000)">
                <g id="instagram" transform="translate(322.000000, 174.000000)" filter="url(#filter-1)">
                    <g>
                        <path d="M18,5.5 C18,5.69697624 17.9611231,5.89204104 17.8857991,6.07401728 C17.8104752,6.25600972 17.699838,6.42136609 17.5606911,6.56065875 C17.4213823,6.6999514 17.2559935,6.81042657 17.0739201,6.88581533 C16.8920086,6.9612041 16.6969762,7 16.5,7 C16.3030238,7 16.1079914,6.9612041 15.9259179,6.88581533 C15.7440065,6.81042657 15.5786177,6.6999514 15.4393089,6.56065875 C15.3,6.42136609 15.1895248,6.25600972 15.1142009,6.07401728 C15.0387149,5.89204104 15,5.69697624 15,5.5 C15,5.10217603 15.1579374,4.72064795 15.4393089,4.43934125 C15.7206803,4.15803456 16.1021598,4 16.5,4 C16.8978402,4 17.2793197,4.15803456 17.5606911,4.43934125 C17.8419006,4.72064795 18,5.10217603 18,5.5 Z M22,12 L22,12.0164945 L21.9271251,16.6310048 C21.9085626,18.295166 21.2392136,19.8860398 20.0624904,21.0629015 C18.8859047,22.2399006 17.2951696,22.9095251 15.6310096,22.9285001 L10.999989,23 L10.983489,23 L6.36899595,22.9271251 C4.70479469,22.9085626 3.11397708,22.2392131 1.93702009,21.0626265 C0.76004936,19.8859023 0.0904404893,18.295166 0.0714998928,16.6310048 L0,12 L0,11.9834945 L0.0728748907,7.36899797 C0.0914511128,5.70479547 0.760709359,4.11397666 1.93741884,2.9370188 C3.11412833,1.76004718 4.70479469,1.09043643 6.36899595,1.0715027 L10.999989,1 L11.016489,1 L15.6310096,1.0728777 C17.2951696,1.09145393 18.8860422,1.76070718 20.0629029,2.93741755 C21.2399011,4.11412791 21.9095251,5.70479547 21.9285001,7.36899797 L22,12 Z M20,12 L19.9281107,7.37557268 C19.9151153,6.23817263 19.4575124,5.15101217 18.65332,4.34669482 C17.8489895,3.54239129 16.7618022,3.0848156 15.6244307,3.07188935 L10.9999862,3 L6.37556932,3.07188935 C5.23817014,3.0848156 4.15101052,3.54239129 3.34669378,4.34669482 C2.54239087,5.15101217 2.08481554,6.23817263 2.07188929,7.37557268 L2,12 L2.07188929,16.6244273 C2.08481554,17.7617997 2.54239087,18.8489878 3.34669378,19.653319 C4.15101052,20.4576502 5.23817014,20.9151153 6.37556932,20.9281107 L10.9999862,21 L15.6244307,20.9281107 C16.7618022,20.9151153 17.8489895,20.4576502 18.65332,19.653319 C19.4575124,18.8489878 19.9151153,17.7617997 19.9281107,16.6244273 L20,12 Z M17,11.5 C17,12.9586831 16.4205467,14.3576468 15.3890984,15.3890964 C14.3576501,16.420546 12.9586746,17 11.4999866,17 C10.0412986,17 8.64234995,16.420546 7.61090163,15.3890964 C6.57945331,14.3576468 6,12.9586831 6,11.5 C6,10.0413035 6.57945331,8.64235316 7.61090163,7.61090359 C8.64234995,6.57945402 10.0412986,6 11.4999866,6 C12.9586746,6 14.3576501,6.57945402 15.3890984,7.61090359 C16.4205467,8.64235316 17,10.0413035 17,11.5 Z M15,11.5 C15,10.5717331 14.6312848,9.68149411 13.9748702,9.02511836 C13.318469,8.36874261 12.4282317,8 11.4999866,8 C10.5717281,8 9.6814909,8.36874261 9.02511641,9.02511836 C8.36874191,9.68149411 8,10.5717331 8,11.5 C8,12.4282402 8.36874191,13.3184524 9.02511641,13.9748683 C9.6814909,14.6312841 10.5717281,15 11.4999866,15 C12.4282317,15 13.318469,14.6312841 13.9748702,13.9748683 C14.6312848,13.3184524 15,12.4282402 15,11.5 Z" id="Shape" fill="#000000" fill-rule="nonzero"></path>
                    </g>
                </g>
            </g>
        </g>
    </g>
</svg>